<?xml version="1.0" encoding="utf-8"?>
<!-- Generator: Adobe Illustrator 25.4.6, SVG Export Plug-In . SVG Version: 6.00 Build 0)  -->
<svg version="1.1" xmlns="http://www.w3.org/2000/svg" xmlns:xlink="http://www.w3.org/1999/xlink" x="0px" y="0px"
	 viewBox="0 0 360 360" style="enable-background:new 0 0 360 360;" xml:space="preserve">
<style type="text/css">
	.st0{fill:#FFFFFF;}
	.st1{fill:#A1D3FF;}
	.st2{fill:#2491FF;}
	.st3{fill:#1A4480;}
	.st4{fill:#0050D8;}
	.st5{fill:#005EA2;}
	.st6{fill:#0B4778;}
	.st7{clip-path:url(#SVGID_00000044176183701525830900000007334350786437457541_);}
	.st8{fill:#73B3E7;}
	.st9{fill:#49C3D4;}
	.st10{display:none;}
	.st11{display:inline;}
	.st12{fill:#00A6BA;}
	.st13{fill:#92DCE6;}
	.st14{fill:#00BFD1;}
	.st15{fill:#162E51;}
	.st16{fill:#D9E8F6;}
	.st17{fill:#0095AB;}
	.st18{fill:#006D7D;}
	.st19{fill:#B37158;}
</style>
<g id="BK">
	<rect class="st0" width="360" height="360"/>
</g>
<g id="floor">
	<rect y="329.8" class="st1" width="360" height="30.2"/>
</g>
<g id="doctor_BK">
	<polyline class="st2" points="44.5,29.8 185.7,56.4 185.7,331.8 48.3,357.6 40.8,351.2 44.5,29.8 	"/>
</g>
<g id="plant">
	<g>
		<g>
			<path class="st3" d="M322.4,296.2c0,0,13.2-22.2,0.5-92.4C322.9,203.8,310.1,272.8,322.4,296.2z"/>
			<path class="st4" d="M322.4,296.2c0,0,1.9-23.3-21.1-59.2C299.8,234.7,306.4,283.2,322.4,296.2z"/>
			<path class="st4" d="M322.4,292.1c2.7-1.6,13.2-19.5,15.8-29.1c3.5-12.7,11.2-31,11.2-31C322.7,247.1,322.4,292.1,322.4,292.1z"
				/>
			<path class="st4" d="M293.5,260.6c12.8,36.4,27.2,36.9,27.2,36.9C313.8,271.5,293.5,260.6,293.5,260.6z"/>
			<path class="st3" d="M325.1,296.2c0,0,14.9-11.3,24.2-32.5C349.4,263.7,318.9,279.9,325.1,296.2z"/>
		</g>
		<polygon class="st2" points="321.1,288.9 318.8,288.9 299.7,288.9 306.4,330.1 318.8,330.1 321.1,330.1 333.5,330.1 340.2,288.9 
					"/>
		<path class="st5" d="M310.5,288.9h-10.8l6.7,41.2h14C315.5,316.8,312.1,302.9,310.5,288.9z"/>
	</g>
</g>
<g id="clock">
	<g>
		<g>
			<circle class="st2" cx="229.9" cy="29.3" r="23.8"/>
			<path class="st6" d="M229.9,54.6c-14,0-25.4-11.4-25.4-25.4c0-14,11.4-25.4,25.4-25.4c14,0,25.4,11.4,25.4,25.4
				C255.3,43.3,243.9,54.6,229.9,54.6z M229.9,7c-12.3,0-22.3,10-22.3,22.3c0,12.3,10,22.3,22.3,22.3s22.3-10,22.3-22.3
				C252.3,17,242.2,7,229.9,7z"/>
		</g>
		<rect x="229" y="5.6" class="st6" width="2" height="4.7"/>
		<rect x="229" y="48" class="st6" width="2" height="4.7"/>
		
			<rect x="250.1" y="26.8" transform="matrix(-1.836970e-16 1 -1 -1.836970e-16 280.2784 -221.9596)" class="st6" width="2" height="4.7"/>
		
			<rect x="207.8" y="26.8" transform="matrix(-1.836970e-16 1 -1 -1.836970e-16 237.9267 -179.6079)" class="st6" width="2" height="4.7"/>
		<g>
			<polygon class="st6" points="230.8,30.9 221.4,24.2 222.3,22.9 229.1,27.7 229.1,13.9 230.8,13.9 			"/>
		</g>
		<circle class="st6" cx="229.9" cy="29.3" r="2.1"/>
	</g>
</g>
<g id="poster">
	<g>
		<defs>
			<path id="SVGID_1_" d="M184.7,325c0,3.3-2.4,6.2-5.7,6.7L52.4,351.9c-4.1,0.7-7.9-2.5-7.9-6.7V43c0-4.2,3.8-7.4,7.9-6.7
				l126.6,21.8c3.3,0.6,5.6,3.4,5.6,6.7V325z"/>
		</defs>
		<clipPath id="SVGID_00000090286098517406069880000001761705116980171418_">
			<use xlink:href="#SVGID_1_"  style="overflow:visible;"/>
		</clipPath>
		<g style="clip-path:url(#SVGID_00000090286098517406069880000001761705116980171418_);">
			<rect x="93.3" y="-13.1" class="st8" width="87.6" height="117.7"/>
			<g>
				<g>
					<path class="st1" d="M130.4,55.3c0-0.3,0-0.6,0-0.9c0-0.4,0-0.8,0-1.2c0-0.4-0.1-0.9-0.1-1.4c0-0.3,0-0.5-0.1-0.8
						c0-0.3-0.1-0.5-0.1-0.8c-0.1-0.6-0.1-1.1-0.2-1.7c-0.1-0.6-0.2-1.2-0.2-1.8c-0.1-0.6-0.2-1.2-0.3-1.8c-0.1-0.6-0.3-1.2-0.4-1.7
						c-0.2-0.6-0.3-1.1-0.5-1.6c-0.1-0.3-0.2-0.5-0.3-0.7c-0.1-0.2-0.2-0.5-0.3-0.7c-0.1-0.2-0.2-0.4-0.3-0.6
						c-0.1-0.1-0.1-0.2-0.1-0.3c-0.1-0.1-0.1-0.2-0.2-0.3c-0.2-0.4-0.4-0.7-0.6-0.9c-0.1-0.1-0.2-0.3-0.3-0.4
						c-0.1-0.1-0.2-0.2-0.3-0.3c-0.1-0.1-0.2-0.2-0.3-0.2c0,0,0,0,0,0c0,0-0.1,0-0.1-0.1c-0.3-0.2-0.6-0.3-0.9-0.3
						c-0.1,0-0.2-0.1-0.3-0.1c0,0-2.1-0.5-4.2-0.5c-1.7,0-3.8,0.5-3.8,0.5c-0.1,0-0.2,0.1-0.3,0.1c-0.3,0-0.6,0.1-0.9,0.3
						c0,0,0,0,0,0c-0.1,0.1-0.2,0.1-0.3,0.2c-0.1,0.1-0.2,0.2-0.3,0.3c-0.1,0.1-0.2,0.2-0.3,0.4c-0.2,0.3-0.4,0.6-0.6,0.9
						c-0.1,0.1-0.1,0.2-0.2,0.3c0,0.1-0.1,0.2-0.1,0.3c-0.1,0.2-0.2,0.4-0.3,0.6c-0.1,0.2-0.2,0.5-0.3,0.7c-0.1,0.2-0.2,0.5-0.3,0.7
						c-0.2,0.5-0.3,1-0.5,1.6c-0.2,0.6-0.3,1.1-0.4,1.7c-0.1,0.6-0.2,1.2-0.3,1.8c-0.1,0.6-0.2,1.2-0.2,1.8
						c-0.1,0.6-0.1,1.2-0.2,1.7c0,0.3-0.1,0.5-0.1,0.8c0,0.3,0,0.5-0.1,0.8c0,0.5-0.1,1-0.1,1.4c0,0.4,0,0.8,0,1.2
						c0,0.4,0,0.7,0,0.9c0,0.5,0,0.8,0,0.8c0,0.6,0.4,1.1,1,1.1c0.6,0.1,1.1-0.4,1.2-1l0,0c0,0,0-0.3,0.1-0.8c0-0.2,0.1-0.6,0.1-0.9
						c0-0.3,0.1-0.7,0.1-1.2c0.1-0.4,0.1-0.9,0.2-1.4c0-0.2,0.1-0.5,0.1-0.7c0-0.3,0.1-0.5,0.1-0.8c0.1-0.5,0.2-1.1,0.3-1.6
						c0.1-0.5,0.2-1.1,0.3-1.6c0.1-0.5,0.3-1.1,0.4-1.6c0.2-0.5,0.3-1,0.5-1.5c0-0.1,0.1-0.2,0.1-0.3c0.2,1.7,0.4,3.5,0.5,4.5
						c0.1,1.6,0,5.7,0,7.5c0,0,0,0.1,0,0.1c0,0,0,0.1,0,0.3c0,0.2,0,0.5,0,0.8c0,0.7,0,1.6,0.1,2.7c0,1.1,0.1,2.4,0.2,3.8
						c0,0.7,0.1,1.4,0.1,2.2c0,0.7,0.1,1.5,0.1,2.2c0.4,5.9,0.8,11.9,0.8,11.9l0,0c0,0.6,0.6,1.2,1.2,1.2c0.7,0,1.3-0.5,1.3-1.2
						c0,0,0.1-5.9,0.1-11.9c0-0.7,0-1.5,0-2.2c0-0.7,0-1.4,0-2.1c0-1.4,0.1-2.7,0.1-3.8c0-1.1,0.1-2,0.1-2.6c0-0.2,0-0.4,0-0.5h1.2
						c0,0.1,0,0.3,0,0.5c0,0.6,0.1,1.5,0.1,2.6c0,1.1,0.1,2.4,0.1,3.8c0,0.7,0,1.4,0,2.1c0,0.7,0,1.5,0,2.2
						c0.1,5.9,0.1,11.9,0.1,11.9c0,0.6,0.5,1.2,1.2,1.2c0.7,0,1.3-0.5,1.3-1.2l0,0c0,0,0.4-5.9,0.8-11.9c0-0.7,0.1-1.5,0.1-2.2
						c0-0.7,0.1-1.5,0.1-2.2c0.1-1.4,0.1-2.7,0.2-3.8c0-1.1,0.1-2.1,0.1-2.7c0-0.2,0-0.3,0-0.4h0c0,0,0-0.1,0-0.2c0-0.1,0-0.1,0-0.2
						c0-0.2,0-0.3,0-0.3c0,0,0-0.1,0-0.1c0-1.7-0.1-5.8,0-7.4c0.1-1,0.3-2.9,0.5-4.7c0.1,0.2,0.1,0.4,0.2,0.5c0.2,0.5,0.3,1,0.5,1.5
						c0.1,0.5,0.3,1.1,0.4,1.6c0.1,0.6,0.2,1.1,0.3,1.6c0.1,0.5,0.2,1.1,0.3,1.6c0,0.3,0.1,0.5,0.1,0.8c0,0.3,0.1,0.5,0.1,0.7
						c0.1,0.5,0.1,0.9,0.2,1.4c0.1,0.4,0.1,0.8,0.1,1.2c0,0.3,0.1,0.7,0.1,0.9c0,0.5,0.1,0.8,0.1,0.8l0,0c0.1,0.6,0.5,1,1.1,1
						c0.6,0,1.1-0.5,1.1-1.1C130.5,56.1,130.5,55.8,130.4,55.3z"/>
					<path class="st1" d="M120.6,34.7c1.9,0,3.4-1.5,3.4-3.4c0-1.9-1.5-3.4-3.4-3.4s-3.4,1.5-3.4,3.4
						C117.2,33.2,118.7,34.7,120.6,34.7z"/>
				</g>
				<g>
					<circle class="st1" cx="158.5" cy="39.6" r="4.9"/>
					<g>
						<rect x="121.9" y="39.1" class="st1" width="36.6" height="1"/>
					</g>
				</g>
				<g>
					<circle class="st1" cx="158.5" cy="69.6" r="4.9"/>
					<g>
						<rect x="123.9" y="69.1" class="st1" width="34.6" height="1"/>
					</g>
				</g>
				<g>
					<circle class="st1" cx="158.5" cy="54.6" r="4.9"/>
					<g>
						<rect x="123.9" y="54.1" class="st1" width="34.6" height="1"/>
					</g>
				</g>
			</g>
			<g>
				<rect x="98" y="-8.5" class="st1" width="78.1" height="29.9"/>
				<rect x="98" y="87.4" class="st1" width="78.1" height="11"/>
				<g>
					<g>
						<g>
							<path class="st9" d="M105.2,5.5c0.6,0,1.2,0,1.7,0l1.7,0l1.7,0l1.7,0l0.9,0l0.6,0l0.1-0.2l0.2-0.4l0.2-0.4
								c0.1-0.1,0.1-0.3,0.2-0.4l0.3-0.9l0.4-0.9l0.5-1.2l0.3,1.3l0.1,0.4l0.1,0.4l0.2,0.9l0.1,0.4l0.1,0.4l0.2,0.9l0.1,0.4l0.1,0.4
								l0.2,0.9l0.1,0.6c0.1-0.2,0.2-0.4,0.2-0.6l0.2-0.4l0.2-0.4l0.3-0.8l0.1-0.1h0.1l2.6,0l1.5,0c0.5-1,0.7-2,0.7-3
								c0-3-2.2-5.4-5-5.4c-2.7,0-5,2.4-5,5.4c0-3-2.2-5.4-5-5.4c-2.7,0-5,2.4-5,5.4c0,1,0.3,2,0.7,3l0.7,0L105.2,5.5z"/>
						</g>
						<g>
							<path class="st9" d="M118,6.8l-0.2,0.7l-0.1,0.4l-0.1,0.4c-0.1,0.3-0.2,0.6-0.3,0.9l-0.3,0.9l-0.4,1.1l-0.3-1.1
								c-0.1-0.3-0.1-0.6-0.2-0.9l-0.2-0.9l-0.2-0.9L115.6,7l-0.1-0.4l-0.2-0.9l-0.1-0.4l-0.1-0.4l-0.1-0.4l-0.2,0.5
								c-0.1,0.1-0.1,0.3-0.2,0.4l-0.2,0.4l-0.2,0.4l-0.2,0.4l-0.1,0.2l-0.2,0l-0.9,0l-0.9,0l-1.7,0l-1.7,0l-1.7,0
								c-0.6,0-1.2,0-1.7,0l-0.9,0l-0.5,0c2.4,4.8,9,9.1,9,9.1s6.6-4.2,9-9.1l-1.3,0L118,6.8z"/>
						</g>
					</g>
					<g>
						<rect x="130.1" y="1.6" class="st9" width="41.1" height="2.8"/>
						<rect x="130.1" y="8.4" class="st9" width="30.1" height="2.8"/>
					</g>
				</g>
			</g>
		</g>
	</g>
</g>
<g id="cabnet" class="st10">
	<g class="st11">
		<g>
			<rect x="-54" y="31.6" class="st12" width="130.6" height="70.2"/>
			<path class="st9" d="M79.1,104.3H-56.5V29.1H79.1V104.3z M-51.5,99.3H74.1V34.1H-51.5V99.3z"/>
		</g>
		<rect x="-56.1" y="63.8" class="st9" width="134.7" height="5.8"/>
	</g>
	<g class="st11">
		<g>
			<path class="st13" d="M23.6,63.8h-1.1c-3.5,0-6.4-2.9-6.4-6.4v-3.9c0-3.5,2.9-6.4,6.4-6.4h1.1c3.5,0,6.4,2.9,6.4,6.4v3.9
				C30,60.9,27.1,63.8,23.6,63.8z"/>
			<rect x="18.3" y="44.1" class="st13" width="9.6" height="4.7"/>
			<path class="st14" d="M27.5,46.4h-9c-0.6,0-1.1-0.5-1.1-1.1v-1.2c0-0.6,0.5-1.1,1.1-1.1h9c0.6,0,1.1,0.5,1.1,1.1v1.2
				C28.7,45.9,28.1,46.4,27.5,46.4z"/>
			<rect x="17.8" y="52.1" class="st14" width="10.4" height="7.9"/>
		</g>
		<g>
			<path class="st13" d="M40.3,63.8h-1.1c-3.5,0-6.4-2.9-6.4-6.4v-3.9c0-3.5,2.9-6.4,6.4-6.4h1.1c3.5,0,6.4,2.9,6.4,6.4v3.9
				C46.6,60.9,43.8,63.8,40.3,63.8z"/>
			<rect x="35" y="44.1" class="st13" width="9.6" height="4.7"/>
			<path class="st14" d="M44.2,46.4h-9c-0.6,0-1.1-0.5-1.1-1.1v-1.2c0-0.6,0.5-1.1,1.1-1.1h9c0.6,0,1.1,0.5,1.1,1.1v1.2
				C45.3,45.9,44.8,46.4,44.2,46.4z"/>
			<rect x="34.5" y="52.1" class="st14" width="10.4" height="7.9"/>
		</g>
		<g>
			<path class="st13" d="M56.9,63.8h-1.1c-3.5,0-6.4-2.9-6.4-6.4v-3.9c0-3.5,2.9-6.4,6.4-6.4h1.1c3.5,0,6.4,2.9,6.4,6.4v3.9
				C63.3,60.9,60.5,63.8,56.9,63.8z"/>
			<rect x="51.6" y="44.1" class="st13" width="9.6" height="4.7"/>
			<path class="st14" d="M60.9,46.4h-9c-0.6,0-1.1-0.5-1.1-1.1v-1.2c0-0.6,0.5-1.1,1.1-1.1h9c0.6,0,1.1,0.5,1.1,1.1v1.2
				C62,45.9,61.5,46.4,60.9,46.4z"/>
			<rect x="51.2" y="52.1" class="st14" width="10.4" height="7.9"/>
		</g>
	</g>
	<g class="st11">
		<rect x="44.6" y="86.1" class="st13" width="24.2" height="13.4"/>
		<rect x="44.6" y="86.1" class="st14" width="24.2" height="9.7"/>
		<g>
			<path class="st13" d="M63.5,89.9l-1.2-1.2c-0.5-0.5-1.3-0.5-1.8,0l0,0c-0.5,0.5-0.5,1.3,0,1.8l1.2,1.2L63.5,89.9z"/>
			<path class="st13" d="M62,92l1.2,1.2c0.5,0.5,1.3,0.5,1.8,0l0,0c0.5-0.5,0.5-1.3,0-1.8l-1.2-1.2L62,92z"/>
		</g>
	</g>
	<g class="st11">
		<rect x="32" y="72.6" class="st13" width="24.2" height="13.4"/>
		<rect x="32" y="72.6" class="st14" width="24.2" height="9.7"/>
		<g>
			<path class="st13" d="M50.9,76.4l-1.2-1.2c-0.5-0.5-1.3-0.5-1.8,0l0,0c-0.5,0.5-0.5,1.3,0,1.8l1.2,1.2L50.9,76.4z"/>
			<path class="st13" d="M49.4,78.6l1.2,1.2c0.5,0.5,1.3,0.5,1.8,0l0,0c0.5-0.5,0.5-1.3,0-1.8l-1.2-1.2L49.4,78.6z"/>
		</g>
	</g>
	<g class="st11">
		<rect x="18.7" y="86.1" class="st13" width="24.2" height="13.4"/>
		<rect x="18.7" y="86.1" class="st14" width="24.2" height="9.7"/>
		<g>
			<path class="st13" d="M37.6,89.9l-1.2-1.2c-0.5-0.5-1.3-0.5-1.8,0l0,0c-0.5,0.5-0.5,1.3,0,1.8l1.2,1.2L37.6,89.9z"/>
			<path class="st13" d="M36.1,92l1.2,1.2c0.5,0.5,1.3,0.5,1.8,0l0,0c0.5-0.5,0.5-1.3,0-1.8L38,90.2L36.1,92z"/>
		</g>
	</g>
	<g class="st11">
		<path class="st14" d="M-16.6,99.5h-12.5c-5,0-9.1-4.1-9.1-9.1v-0.7c0-5,4.1-9.1,9.1-9.1h12.5c5,0,9.1,4.1,9.1,9.1v0.7
			C-7.6,95.4-11.6,99.5-16.6,99.5z"/>
		<g>
			<path class="st14" d="M-16.7,83.4H-29v-5.5c0-1.6,1.3-2.9,2.9-2.9h6.5c1.6,0,2.9,1.3,2.9,2.9V83.4z M-27.1,81.5h8.5v-3.6
				c0-0.5-0.4-1-1-1h-6.5c-0.5,0-1,0.4-1,1V81.5z"/>
		</g>
		<circle class="st13" cx="-22.9" cy="89.9" r="6.5"/>
		<g>
			<g>
				<path class="st14" d="M-22.9,93.9c-0.4,0-0.8-0.4-0.8-0.8v-6.3c0-0.4,0.4-0.8,0.8-0.8c0.4,0,0.8,0.4,0.8,0.8v6.3
					C-22.1,93.5-22.4,93.9-22.9,93.9z"/>
			</g>
			<g>
				<path class="st14" d="M-19.7,90.7H-26c-0.4,0-0.8-0.4-0.8-0.8c0-0.4,0.4-0.8,0.8-0.8h6.3c0.4,0,0.8,0.4,0.8,0.8
					C-18.9,90.4-19.3,90.7-19.7,90.7z"/>
			</g>
		</g>
	</g>
</g>
<g id="doctor_chair">
	<g>
		<g>
			<polygon class="st15" points="154.5,329.7 142.8,256.9 150.5,256.3 159.8,329.7 			"/>
		</g>
		<g>
			<polygon class="st15" points="118.3,329.7 106.7,256.9 114.4,256.3 123.7,329.7 			"/>
		</g>
		<g>
			<polygon class="st15" points="34.1,329.7 43.5,256.3 50.9,256.9 39.5,329.7 			"/>
		</g>
		<g>
			<polygon class="st15" points="70.3,329.7 79.6,256.3 87,256.9 75.6,329.7 			"/>
		</g>
		<path class="st4" d="M42.5,266.5H150c5.4,0,9.9-3.9,9.9-9.3v0c0-5.4-4.4-9.3-9.9-9.3l-107.4-1.1V266.5z"/>
		<path class="st4" d="M33.1,156.3c-0.6-3.1,1.7-5.9,4.8-5.9h24.3h10.1c2.3,0,4.3,1.6,4.8,3.9l6,28.5c4.4,21.1,28.9,42.9,25.2,64.2
			l-3.5,19.5H62.2H42.5l-2.9-19.5c3.8-21.3,3.5-43-1-64.2L33.1,156.3z"/>
		<path class="st15" d="M33.9,152.5c1-1.4,3.1-0.9,3.5,0.7c0.4,1.5,0.9,3.5,1.5,5.8c3.6,14.5,12,42.3,12.4,44.9
			c1,6.7,2.2,10.7,1.5,20.1c-0.5,6.8-2.1,12.8-1.7,19.7c0.1,1.3,0.9,2.6,2.2,2.9c3.2,0.8,30.7,1.9,30.7,1.9
			c8.3,0.5,11,4.8,10.5,10.3c-0.4,4.5-4.2,7.8-9.4,7.8H42.5c0,0-4.5-0.8-2.9-19.5c1.9-21.5,3.5-43-1-64.2l-5.6-26.5
			C32.8,154.9,33.1,153.5,33.9,152.5z"/>
	</g>
</g>
<g id="phone">
	<polygon class="st4" points="185.5,329.6 42.5,329.6 42.5,351.2 49.4,355.1 183.1,334 	"/>
	<path class="st3" d="M40.8,351.7V29.8l7.6-5.8l-17,1.8c-3.9,0-7.1,3.2-7.1,7.1v315.5c0,3.9,3.2,7.1,7.1,7.1l16.9,2L40.8,351.7z"/>
	<path class="st5" d="M183,47.2L48.4,23.9c-4-0.7-7.6,2.4-7.6,6.4v320.8c0,4,3.6,7.1,7.5,6.4L183,336c3.2-0.5,5.5-3.2,5.5-6.4V53.6
		C188.5,50.5,186.2,47.8,183,47.2z M184.7,325c0,3.3-2.4,6.2-5.7,6.7L52.4,351.9c-4.1,0.7-7.9-2.5-7.9-6.7V43c0-4.2,3.8-7.4,7.9-6.7
		l126.6,21.8c3.3,0.6,5.6,3.4,5.6,6.7V325z"/>
	<ellipse class="st0" cx="120.1" cy="42.6" rx="2.9" ry="4"/>
	<rect x="30.1" y="46.6" class="st5" width="3.6" height="31.6"/>
</g>
<g id="doctor">
	<path class="st0" d="M147.2,154.7c1.1,11.6,1.5,22,4.5,33.2c-0.3-0.5,11,6.7,28.1,11.8l-1.8,11.6c-10.9,0-43-0.1-46.5-7.7
		c-5.6-12.2-5.4-35.9-4.8-49.1L147.2,154.7z"/>
	<path class="st16" d="M161.6,207.7l-4.5-0.4c-1.2-0.1-2.8-0.3-3.7-0.4c-1.6-0.2-4-0.2-5.8-0.6c-2.2-0.5-4.4-1.6-5.3-3.8
		c-1-2.1,0.1-8.6,0-10.9c-0.3-5.4,1.9-21.8,2-29.3c0-0.7-3.4-7.3-3.1-7.7l-14.9-0.1c-0.7,13.2-0.9,36.9,4.8,49.1
		c3.5,7.7,35.7,7.8,46.5,7.7l0.4-2.5C172.4,208.7,167,208.2,161.6,207.7z"/>
	<g>
		<path class="st3" d="M141.9,138l-1-0.1c0-0.5,0.3-2.3,0.5-4.4c0.4-3.1,0.9-7,0.9-7.7l1,0c0,0.8-0.5,4.5-0.9,7.8
			C142.2,135.7,142,137.5,141.9,138z"/>
	</g>
	<g>
		<g>
			<g>
				<g>
					<g>
						<path class="st17" d="M111.4,319.7c-2.7,0-5,2.2-5,5s2.2,5,5,5c2.7,0,5-2.2,5-5S114.2,319.7,111.4,319.7z"/>
					</g>
				</g>
			</g>
		</g>
		<path class="st6" d="M122.6,129.6c-9.4-1.9-27.9,9-31.1,30.7c-3.2,21.7-9.9,22.9-13.4,35.8c-1.5,5.6-12.2,33.6,4,41.8l37.9,15.3
			c6.6-10.4,24-103,18.1-108.9C127.6,134,129.2,130.9,122.6,129.6z"/>
		<path class="st15" d="M154.8,322.9c-4.9-0.5-15.2-6.7-15.2-6.7l-13.5,0c0,0-1.5,5.1-1.5,9.5c0,1.4,0.8,3.7,0.8,3.7l35.4,0.1
			C160.9,329.6,162.3,323.7,154.8,322.9z"/>
		<path class="st15" d="M123.8,323c-3.3-0.5-6.2-6.6-6.2-6.6l-13,0c0,0-1.9,5.1-1.9,8.4c0,4,0.9,4.9,0.9,4.9l24.4,0.1
			C127.9,329.6,128.8,323.7,123.8,323z"/>
		<path class="st5" d="M156.4,227.3c-11.9-3.8-28.6-16.5-28.6-16.5l-49.2,0.9l33.3,36.4l27.9,4.7c0,0-3.8,9.8-6.3,21.6
			c-3.4,16.2-8.8,43-8.8,43h17.5c0,0,22.9-63.9,23.6-66.4C168.2,242.1,162.9,229.3,156.4,227.3z"/>
		<path class="st6" d="M124.7,317.4h7.1c2.4-13,6.3-25.7,10.7-38.2c2.2-6.2,4.3-8.7,7.1-14.6c2.7-5.7,6.4-11.5,12.1-14.7
			c1.7-0.9,3.3,0,4,1.3c0-0.1,0-0.2,0.1-0.2c2.4-8.9-2.9-21.6-9.4-23.7c-11.9-3.8-28.6-16.5-28.6-16.5l-49.2,0.9l33.3,36.4l27.9,4.7
			c0,0-3.8,9.8-6.3,21.6C130,290.6,124.7,317.4,124.7,317.4z"/>
		<path class="st5" d="M130.9,227.3l-19.5-10l-41.5,1.6l3.8,18.3l32,12.6c0,0-3.1,7.8-3.9,18.6c-1,13.2,1.1,49.1,1.1,49.1h16.3
			c0,0,14.5-68.4,14.6-68.7C134.7,241.6,137.2,231.3,130.9,227.3z"/>
		<path class="st6" d="M111.1,300.3c-0.2-12.1,0.4-20.3,1.3-32.4c0.6-8,0.7-16.3,3.2-24.1c1.2-3.8,3.1-7.4,5.8-10.4
			c2.5-2.8,5.6-4.9,8.9-6.5l-18.9-9.7l-41.5,1.6l3.8,18.3l32,12.6c0,0-3.1,7.8-3.9,18.6c-1,13.2,1.1,49.1,1.1,49.1h9.2
			C111.5,311.7,111.2,306,111.1,300.3z"/>
		<path class="st0" d="M114.2,143.8c-0.4-5.4-0.7-10.5-3.2-15.3c-13.6,4.1-25.2,8.8-28.1,26.4c-3.5,21-4.5,27.3-8.7,41.8
			c-10.5,35.8-5.1,45.6,11.8,50.1l18.2,3.5c-2.9-7,0.2-14.8,3-17.2c12.7-10.7,23.7-5.7,23.7-5.7s-17.1-9.6-17.5-15.4
			c-0.2-3.4,10.4-9.9,9.1-23.2C120.8,170.9,114.5,147.9,114.2,143.8z"/>
		<path class="st16" d="M103.4,240.3c-9.7-2.5-19.2-7.1-23.8-16.2c-3.4-6.7-3.8-14.2-3.4-21.6c0.3-6.5,1.3-13,1.5-19.5
			c-1,4.2-2.1,8.4-3.6,13.7c-10.5,35.8-5.1,45.6,11.8,50.1l18.2,3.5C102.8,246.9,102.8,243.4,103.4,240.3z"/>
		<path class="st0" d="M127.8,185c-1.1,6.1-4.6,16.3-0.1,27.5c0.8,1.9,16.5,14.2,16.5,14.2c3.8-3,12.2,0.6,12.2,0.6
			c-13.1-12.7-23.7-10.6-22.5-18.9c1.8-11.9,10.9-28.7,13.1-42.1c0.5-3.3,0.6-8.7,0.2-10.7c-2.8-15.1-14.4-19.1-17.7-22.2
			C130.1,135.3,136.1,139.4,127.8,185z"/>
		<g>
			<path class="st8" d="M133,126.7c2.1-4.2-7.8-8.6-7.8-8.6s-6.8,9.2-11.7,10.5l1,5.9c0,0,5.2,12.6,10.8,12.9
				c6.3,0.4,9.1-7.9,10.1-10.3C135.3,137.1,131.4,130,133,126.7z"/>
		</g>
		<g>
			<path class="st5" d="M128.7,120.5c-3.6,2-5.9,5.4-7,9.3c-1.8,6.4-0.3,13.1,4.8,17.6c5.4-0.8,7.8-8,8.8-10.3c0,0-3.9-7.1-2.3-10.4
				c1.2-2.4-1.4-4.8-3.9-6.4C128.9,120.4,128.8,120.5,128.7,120.5z"/>
		</g>
		<path class="st16" d="M115.3,128.8l-4.3-0.3l-4.1,10.9l4.6,2.9l-3.2,4.7c0,0,13.1,30.1,13.6,36.8c0,0,2.8-16.9-5.3-47.9
			C113.9,125.3,115.3,128.8,115.3,128.8z"/>
		<path class="st0" d="M119.4,124.6l-8.4,3.9l-2.6,10.7l4.6,2.9l-3.2,4.7c0,0,11.7,30.3,12.1,37c0,0,2.3-13.6-4.4-45.1
			C115.4,128.6,119.4,124.6,119.4,124.6z"/>
		<path class="st16" d="M140.2,150.8l-3.1-6.1l2.8-0.2c0,0-4.1-5-6.6-9c-0.5,0.9-1.1,1.7-1.7,2.5c-0.3,0.9-0.7,1.8-1.2,2.6
			c0,0,0,0.1-0.1,0.1c1.3,6.8-1.8,26-2.5,44.4L140.2,150.8z"/>
		<path class="st0" d="M138.1,150.8l-3.1-6.1l2.8-0.2c0,0-2-5-4.5-9c-0.5,0.9-1.1,1.7-1.7,2.5c-0.3,0.9-0.7,1.8-1.2,2.6
			c0,0,0,0.1-0.1,0.1c1.3,6.8-1.8,26-2.5,44.4L138.1,150.8z"/>
		<path class="st16" d="M130.7,143.1c1.3,1.4,3.9,0.8,5.5,0.2c0.3-0.1,0.7-0.3,1-0.5c-0.8-1.8-2.2-4.8-3.8-7.4
			c-0.5,0.9-1.1,1.7-1.7,2.5c-0.3,0.9-0.7,1.8-1.2,2.6c0,0,0,0.1-0.1,0.1c0.1,0.7,0.2,1.5,0.3,2.4
			C130.6,143,130.7,143.1,130.7,143.1z"/>
		<g>
			<path class="st8" d="M151.5,114.1c0,0-11.3-5.1-20.7-6.5c-9.4-1.4-7.1,8.8-7.1,8.8s-3.2,12.3-0.3,18.3c0,0,7.1,9.6,12.3,6.7
				c4-2.2,11.3-13.5,13.7-20.8C150.3,117.3,151.5,114.1,151.5,114.1z"/>
			<path class="st15" d="M139.3,95.5c-4.3-1.5-11.6-0.5-13.8,1.7c-1.6,1.5-2.5,3.3-3.7,5.1c-1,1.5-2.9,2.6-3.4,4.4
				c-0.4,1.3,0,2.8-0.4,4.1c-0.1,0.4-0.4,0.9-0.5,1.3c-0.5,1.4-0.3,2.9-0.1,4.3c0.5,3,0.7,6,1.5,8.9l5.5-4l3.4-2.9
				c0,0,2.8-2.2,3.5-3c0.9-1,2.5-5.5,3.9-5.4c2.6,0.3,5.1,1.7,7.4,2.8c2.4,1.1,5.5,3.2,8.1,3.5c0.6,0.1,1.3,0.1,1.9-0.1
				c0.7-0.3,1.2-0.9,1.7-1.5c0.1-0.1,0.2-0.3,0.3-0.5c0.4-1.1-0.4-2.6-0.1-3.8c0.2-1,0.7-1.7,0.5-2.7c-0.3-1.6-1.7-3-2.7-4.1
				C148.7,100.1,144.1,97.2,139.3,95.5z"/>
		</g>
		<path class="st8" d="M127.1,117.1c-0.4-1.3-1.6-4.1-3.6-3.4c-2,0.6-2.9,4.9-2,7.3c0.7,1.6,3.3,4.6,4.9,2
			C128,120.3,127.5,118.4,127.1,117.1z"/>
	</g>
	<g>
		<path class="st3" d="M127,142.3c-5.5-8.3-8.3-15-8.3-20l0-0.1c0.3-2.5,3.2-3.4,4.8-3.8l0.3,1c-1.8,0.5-3.8,1.3-4,2.9
			c0,4.8,2.8,11.3,8.2,19.3L127,142.3z"/>
	</g>
	<g>
		<path class="st1" d="M135.3,148.3c-1.9,0-4-1.1-5.4-2.4c-1.4-1.2-2.6-2.7-4-4.7l1.3-0.9c1.3,1.9,2.4,3.3,3.7,4.4
			c0.4,0.3,4,3.3,6.3,1.3c2.1-1.8,2.9-5.5,3.5-8.2l0,0l1.5,0.3l0,0c-0.6,2.9-1.4,6.9-4,9C137.3,148,136.3,148.3,135.3,148.3z"/>
	</g>
	<g>
		<path class="st1" d="M135.3,148.3c-0.3,0-0.5,0-0.8-0.1l0.2-1.5c1,0.1,1.8,0,2.4-0.5l0.9,1.2C137.2,148,136.3,148.3,135.3,148.3z"
			/>
	</g>
	<g>
		<path class="st5" d="M171.2,198c-8.6,0-13.3-3.1-16.5-6.2c-8.9-8.4-13.8-19.1-16.3-27.6c-2.7-9.2-3.3-16.6-3.3-16.7l1.6-0.1
			c0,0.3,2.5,27.6,19.1,43.3c3.9,3.7,10.1,7.5,24,4.8l0.3,1.5C176.7,197.7,173.7,198,171.2,198z"/>
	</g>
	<path class="st0" d="M123.2,118.2l-0.6,0.1c-0.4,0.1-0.8,0.4-0.8,0.9c0,0.6,0.5,1,1.1,0.9l0.6-0.1c0.4-0.1,0.7-0.4,0.6-0.8
		c0-0.1,0-0.2,0-0.3C124,118.4,123.6,118.1,123.2,118.2z"/>
</g>
<g id="mom">
	<g>
		<path class="st3" d="M176.4,219.8l-2.5-0.9c0.3-3.7,3.9-8,7-10.1c7.2-4.7,13.5-16.1,17.8-18.5c0.9-1.3,11.5-39.2,11.5-39.2l16.4,5
			c-0.1,0.4-12,34.6-13.9,38.8c-3.3,7.2-5.8,10.7-9,12.6C197.4,211.2,178.8,218.8,176.4,219.8z"/>
	</g>
	<g>
		<path class="st8" d="M220.6,173.6c3.2-8.9,6-17.3,6.1-17.5l-16.4-5c0,0-5.3,9.6-8.1,19.3C209.4,174.7,215.2,172.9,220.6,173.6z"/>
	</g>
	<path class="st15" d="M217.2,113.5c0,0-1.5,6.1-1.6,6.5c-0.3,1.9-0.3,3.8-0.5,5.6c-0.3,2.2-0.9,4.4-1.2,6.7
		c-0.1,0.5-0.1,1.1-0.2,1.6c-0.1,0.7-0.2,1.4-0.1,2c0.1,1.3,0.8,2.4,1.2,3.6c0.4,1.4,0.5,2.9,1.3,4.2c1.3,2.1,3.9,2.9,6.3,3.4
		c3.3,0.8,6.8,2,10.1,0.7c2.3-0.9,4.1-2.8,5.6-4.7c2.6-3.4,4.4-7.5,5.6-11.6c0.1-0.3,0.2-0.6,0.3-0.9
		C244,130.6,217.2,113.5,217.2,113.5z"/>
	<g>
		<g>
			<g>
				<polygon class="st18" points="169,329.7 180.6,256.9 172.9,256.3 163.6,329.7 				"/>
			</g>
			<g>
				<polygon class="st18" points="205.1,329.7 216.7,256.9 209,256.3 199.7,329.7 				"/>
			</g>
			<g>
				<polygon class="st15" points="289.3,329.7 280,256.3 272.6,256.9 283.9,329.7 				"/>
			</g>
			<g>
				<polygon class="st15" points="253.2,329.7 243.8,256.3 236.4,256.9 247.8,329.7 				"/>
			</g>
			<path class="st2" d="M280.9,266.5H173.4c-5.4,0-9.9-3.9-9.9-9.3v0c0-5.4,4.4-9.3,9.9-9.3l107.4-1.1V266.5z"/>
			<path class="st2" d="M290.3,156.3c0.6-3.1-1.7-5.9-4.8-5.9h-24.3h-10.1c-2.3,0-4.3,1.6-4.8,3.9l-6,28.5
				c-4.4,21.1-4.8,42.9-1,64.2l3.5,19.5h18.4h19.7l2.9-19.5c-3.8-21.3-3.5-43,1-64.2L290.3,156.3z"/>
			<path class="st15" d="M289.6,152.5c-1-1.4-3.1-0.9-3.5,0.7c-0.4,1.5-0.9,3.5-1.5,5.8c-3.6,14.5-12,42.3-12.4,44.9
				c-1,6.7-2.2,10.7-1.5,20.1c0.5,6.8,2.1,12.8,1.7,19.7c-0.1,1.3-0.9,2.6-2.2,2.9c-3.2,0.8-30.7,1.9-30.7,1.9
				c-8.3,0.5-11,4.8-10.5,10.3c0.4,4.5,4.2,7.8,9.4,7.8h42.5c0,0,4.5-0.8,2.9-19.5c-1.9-21.5-3.5-43,1-64.2l5.6-26.5
				C290.6,154.9,290.3,153.5,289.6,152.5z"/>
		</g>
		<g>
			<g>
				<g>
					<g>
						<g>
							<g>
								<g>
									<g>
										<g>
											<g>
												<g>
													<path class="st15" d="M167.7,318.7c3,0,5.5,2.4,5.5,5.4s-2.5,5.6-5.5,5.6c-3,0-5.5-2.6-5.5-5.6
														S164.7,318.7,167.7,318.7z"/>
												</g>
											</g>
										</g>
									</g>
								</g>
							</g>
						</g>
					</g>
				</g>
				<path class="st5" d="M167,272.8c0.1-10.6,0.1-17.8,1.3-28.3c1.4-12.2,22.6-15.8,32.8-18.7c9.2-2.7,21.5-8.8,29.7-1.4
					c7.9,7.1,5.7,20.3-4.2,24.4c-4.4,1.8-9.5,1-14.1,1.1c-2.8,0-5.6,0.1-8.5,0.3c-2,0.1-13.4-0.2-14.8,1.2c-1.1,1-0.9,6.4-1.1,8.1
					c-0.4,3.7-0.8,7.5-1.2,11.2c-0.8,7.2-0.5,4.9-1.2,12.1c-1.2,11.8-5,24.6-6.3,36.4c-0.5,5.1,1.7,5.5-6.9,3.9
					c-4.6-0.8-4.1-2.1-4.1-5.7C168.3,311.4,166.9,286.2,167,272.8z"/>
				<path class="st3" d="M230.7,224.4c-8.2-7.4-20.5-1.3-29.7,1.4c-10.1,2.9-31.3,6.5-32.8,18.7c-1.2,10.5-1.2,17.7-1.3,28.3
					c0,4.9,0.1,11.2,0.3,17.7c2.7,0.5,4.9,2.2,6.5,4.3c3.5,4.6,4.8,10.7,5.7,16.3c0.2,1,0.3,1.9,0.4,2.9c1.6-10.3,4.5-21.2,5.6-31.2
					c0.8-7.2,0.5-4.9,1.2-12.1c0.4-3.7,0.8-7.5,1.2-11.2c0.2-1.8,0-7.1,1.1-8.1c1.5-1.3,12.8-1,14.8-1.2c2.8-0.2,5.6-0.3,8.5-0.3
					c4.6-0.1,9.8,0.7,14.1-1.1C236.4,244.7,238.6,231.5,230.7,224.4z"/>
				<path class="st5" d="M196.9,276.9c-0.2,2.9,2.2,37.2,2,40.6c-0.2,4.1,2.8,6.6,7.1,5.5c3.3-0.9,3.1-0.4,3.6-3.3
					c0.6-3.2,7.8-34.1,8.3-38.4L196.9,276.9z"/>
				<path class="st3" d="M196.9,276.9c-0.1,1.2,0.3,7.9,0.7,15.5c0.3,0,0.7,0.1,1,0.4c2.9,2.6,4.8,6.1,6.2,9.6
					c1.3,3.3,2.4,6.9,2.5,10.4c0.2,3.3-0.5,6.7-0.8,10c2.7-0.7,2.5-0.5,3-3.1c0.6-3.2,7.8-34.1,8.3-38.4L196.9,276.9z"/>
				<path class="st16" d="M153.1,323.2c4.4-0.5,13.9-6.3,13.9-6.3s1-1.4,3.1-1.4c2,0,3.6,1.4,3.6,1.4l5.7,0c0,0,1.4,4.9,1.4,9
					c0,1.3-0.8,3.8-0.8,3.8h-32.5C147.5,329.7,146.2,324,153.1,323.2z"/>
				<path class="st6" d="M180.4,328c-0.2,0.8-0.4,1.7-0.4,1.7h-32.5c0,0-0.1-0.8-0.1-1.7H180.4z"/>
				<path class="st16" d="M191.5,323.2c3.1-0.5,6-6.3,6-6.3s0.3-1.4,3.2-1.4c2,0,5.1,1.4,5.1,1.4l4.3,0c0,0,1.8,4.9,1.8,7.9
					c0,3.8-0.9,4.9-0.9,4.9h-23.6C187.5,329.7,186.6,324,191.5,323.2z"/>
				<path class="st6" d="M211.7,328c-0.3,1.1-0.6,1.7-0.6,1.7h-23.6c0,0-0.1-0.8-0.1-1.7H211.7z"/>
			</g>
			<path class="st4" d="M164.2,287.7l64.1,3.4c0,0,0-39.3,4.6-41c7.6-2.8,20.2-0.3,26.7-7.4c6.6-7.2-0.2-28.8-0.2-28.8l-42.9,2.1
				L181,226.8c0,0-10.4-0.3-12.9,19.7C164.9,271.9,164.2,287.7,164.2,287.7z"/>
			<path class="st6" d="M259.4,213.9l-42.9,2.1l-7.7,2.3c0.3,0.5,0.7,0.9,1.3,1.4c0.2,0.2,0.4,0.4,0.7,0.6c0,0,0.6,0.4,0.6,0.4
				c0.6,0.4,1.2,0.8,1.9,1.1c0.3,0.2,0.6,0.3,0.9,0.4c0,0,0.7,0.3,0.8,0.3c0.7,0.3,1.5,0.5,2.2,0.7c1.5,0.5,3.1,0.8,4.6,1.1
				c6,1.2,12.5,1.7,18,4.6c1.8,1,2,4,0,4.9c-3.5,1.6-7.1,3-10.7,4.5c-0.4,0.2-0.8,0.3-1.1,0.5c-0.1,0-0.1,0-0.1,0.1c0,0,0,0,0,0
				c-0.2,0.1-0.3,0.1-0.5,0.2c-0.6,0.3-1.3,0.6-1.9,0.9c-1.2,0.6-2.5,1.3-3.6,2c-0.2,0.1-0.3,0.2-0.5,0.4c-0.1,0.1-0.4,0.3-0.5,0.4
				c-0.4,0.4-0.8,0.7-1.2,1.1c-0.2,0.2-0.4,0.5-0.6,0.7c0,0-0.1,0.1-0.1,0.1c0,0,0,0.1-0.1,0.1c-0.3,0.5-0.6,0.9-0.9,1.4
				c-0.2,0.3-0.3,0.6-0.5,1c-0.1,0.1-0.1,0.3-0.2,0.4c0,0,0,0,0,0c-0.2,0.6-0.5,1.3-0.7,1.9c-0.5,1.5-0.8,3.1-1,4.7
				c-1.2,8.7-0.1,14.3-1.3,23.2c-0.6,4.6-6.2,12.2-6.3,12.3l20.3,1.1c0,0,0-39.3,4.6-41c7.6-2.8,20.2-0.3,26.7-7.4
				C266.2,235.5,259.4,213.9,259.4,213.9z"/>
			<path class="st8" d="M236,138.4c11.9-1.8,26.1,5,29.6,12.8c7.6,16.9-8.4,51.4-4.9,67.8c0.4,2.1-5.5,4.4-13.7,5
				c-29.7,2.3-39.6-5.1-39.6-5.1s5.3-24,4.5-28.5c-0.3-1.9-2.8-3.2-3.9-8.2c-1.4-6.9,0.8-6.9,3.8-18.8c1.4-5.6-2.6-8-1.6-12.2
				C211.2,146.9,217.9,141.2,236,138.4z"/>
			<path class="st5" d="M265.7,151.1c-1.8-4.1-6.7-7.9-12.6-10.4c0.5,1.8-7.2-0.8-6.7,1c1.6,6.4,13.3,1.5,11.3,23.9
				c-0.7,8.2,0.4,16.4-1.3,24.5c-0.8,3.9-2,7.6-3.5,11.2c-1.3,3.1-3.2,5.9-5,8.7c-3.5,5.2-7.4,10.1-12.1,14.3
				c3.4,0,7.1-0.1,11.2-0.4c8.2-0.6,14.2-3,13.7-5C257.2,202.6,273.2,168,265.7,151.1z"/>
			<path class="st5" d="M252.5,141.7c-5.1-2.7-11-4.2-16.5-3.4c-5.7,0.9-10.3,2.1-13.9,3.4c0.2,0.3,0.3,0.6,0.4,0.9
				C222.6,142.9,224.5,156,252.5,141.7z"/>
			<path class="st19" d="M228.4,253.2C228.3,253.3,228.3,253.2,228.4,253.2L228.4,253.2z"/>
			<path class="st5" d="M227.7,138.8c0,0,1.2-5.6,1.5-7.3c1-4.9,12.5-4.3,12.9,0.7c0,0,0,5.6,0.6,7.8c0.1,0.5-2.4,6-8.9,7.4
				C230.6,148,226.8,144,227.7,138.8z"/>
			<path class="st3" d="M234.3,141.2c4.8-5.6,4.6-7.7,5-11.2c0.1-0.4-0.7-1.1-0.5-1.4c-3.6-1.3-9-0.5-9.6,2.8
				c-0.3,1.7-1.5,8.4-1.5,8.4C227.6,143.8,232.6,143.3,234.3,141.2z"/>
		</g>
	</g>
	<g>
		<path class="st5" d="M242.7,170.2c-3.2,7.6-5.4,20-6,20.8c-1.7,0.4-28.6,11.1-39.8,12l0.3,8c0.4,0,5.9,1.6,16.8,1.1
			c21.9-1.1,32.7-5,35.5-6.6c4.5-2.6,12-24.3,15-33.3C257.2,171.6,249.9,171,242.7,170.2z"/>
		<path class="st3" d="M242.7,170.2c-0.7,1.7-1.4,3.6-2,5.6c0.3,0.1,0.5,0.2,0.8,0.3c3.3,1.8,14.2,6,14.8,7.1
			c0.8,1.4-7.1,15.1-7.4,16.6c-0.9,5.5-30.7,11.5-35.7,12.3c0.2,0,0.5,0,0.7,0c21.9-1.1,32.7-5,35.5-6.6c4.5-2.6,12-24.3,15-33.3
			C257.2,171.6,249.9,171,242.7,170.2z"/>
		<path class="st5" d="M234.1,193.1C234.1,193.1,234.1,193.1,234.1,193.1C234.1,193.1,234.1,193.1,234.1,193.1z"/>
		<path class="st5" d="M200,202c-2.9-0.8-11.9,0-11.9,0l0.7,12.1c0,0,14,1.2,15.6-3.2C206.2,206.1,203,202.8,200,202z"/>
		<path class="st5" d="M195.6,205l-11.7-0.6c-0.6,0-1.1-0.5-1-1.2c0-0.6,0.5-1,1-1l11.7-0.6c0.9,0,1.7,0.7,1.8,1.6s-0.7,1.7-1.6,1.8
			C195.8,205,195.7,205,195.6,205z"/>
		<path class="st5" d="M182.7,205.7l11.8-0.6c0.9,0,1.7,0.7,1.8,1.6c0,0.9-0.7,1.7-1.6,1.8c-0.1,0-0.1,0-0.2,0l-11.8-0.6
			c-0.6,0-1.1-0.5-1-1.1C181.7,206.1,182.2,205.7,182.7,205.7z"/>
		<path class="st5" d="M183,208.4l11.7,0c0.9,0,1.7,0.7,1.7,1.7c0,0.9-0.7,1.7-1.7,1.7c-0.1,0-0.1,0-0.2,0l-11.6-1.1
			c-0.6-0.1-1-0.6-1-1.2C182,208.9,182.4,208.4,183,208.4z"/>
		<path class="st5" d="M184,211.5c1,0,1.9,0,2.9,0c1,0,1.9-0.1,2.9-0.1c1-0.1,1.9-0.1,2.9-0.2c0.9-0.1,1.9-0.2,2.8-0.3l0,0
			c0.9-0.2,1.8,0.5,1.9,1.4c0.2,0.9-0.5,1.8-1.4,1.9c-0.1,0-0.1,0-0.2,0c-1,0.1-2.1,0.1-3.1,0.1c-1,0-2,0-3-0.1c-1,0-2-0.1-3-0.2
			c-1-0.1-2-0.2-3-0.3c-0.6-0.1-1-0.6-1-1.2C182.9,211.9,183.4,211.5,184,211.5L184,211.5z"/>
		<path class="st5" d="M187.4,198.5c0,0,6-0.3,8.6,0.7c2.5,1,5.8,3.9,5.8,3.9h-6.5c0,0-2.3-2.2-5.8-2.3
			C186.9,200.8,186.3,199,187.4,198.5z"/>
	</g>
	<g>
		<path class="st5" d="M241.4,104.1c6.6,4.9-1.2,26.7-1.2,26.7s-5.7,9.9-15.6,9.2c-1.9-0.1-3.5-1.3-4.6-2.8c-1.5-2-1.9-4.2-2.5-6.6
			c-0.6-2.4-1.3-4.7-1.6-7.2c-0.3-2.4-0.4-4.7-0.5-7.1c-0.1-2.5-0.1-5,0.1-7.5C215.4,108.9,236.2,100.3,241.4,104.1z"/>
		<path class="st15" d="M215.7,102.4c0.8-0.8,1.7-1.5,2.6-2.2c1.7-1.2,3.6-2.1,5.6-2.8c3.9-1.4,8.1-1.3,12.2-0.6
			c5.8,1.1,9.3,6.4,12.1,11c3.2,5.2,5,11.2,6.8,17c0.4,1.4,0.8,2.8,0.8,4.2c0,1.2-0.6,2.2-0.7,3.3c-0.3,2.6-0.5,6.1,0.4,8.5
			c0.2,0.4,0.3,0.9,0.4,1.3c0.1,1-0.7,1.9-1.6,2.4c-0.9,0.5-1.9,0.6-2.9,0.6c-0.6,0-1.4,0.1-1.8,0.6c-0.4,0.6-0.3,1.3-0.4,2
			c-0.3,1.4-1.4,1.6-2.5,1.9c-1.2,0.3-2.5,0.9-3.7,1.2c-1.7,0.5-2.5,0.6-2.8-1.5c-0.3-1.8-0.5-3.7-0.8-5.5c-0.4-2.8-0.8-5.6-0.5-8.5
			c0.1-0.6,0.2-1.3,0.1-1.9c-0.1-1.1-0.8-2.2-0.4-3.2c0.2-0.6,0.8-1.1,0.9-1.7c0.1-0.7-0.4-1.3-0.7-2c-0.8-1.8,1.4-1.9,2-3.2
			c0.9-1.7,0.3-3.9-0.7-5.5c-2.3-3.6-4.4,1.5-4.4,1.5s-1.5-0.3-5.2-2.8c-2.1-1.5-6.8-0.1-9.1,0.3c-1.7,0.3-3.4,0.7-5.1,1.1
			c-0.5,0.1-1.1,0.4-1.5,0.4c-1.3,0-1.7-1-2.6-2c-0.5-0.5-0.9-1.1-1-1.8c-0.1-0.5,0.1-1,0.1-1.5c0-0.9-0.5-1.7-0.9-2.5
			s-0.6-1.8-0.1-2.6c0.4-0.6,1.2-0.9,1.3-1.6c0-0.2,0-0.5,0-0.7c0.1-0.8,1-1.3,1.7-1.7C214.2,103.7,214.9,103.1,215.7,102.4z"/>
	</g>
	<path class="st8" d="M239,176.2l23.5,5c0,0,7.6-26.9-5.9-29.6C243.1,148.9,239.6,168.7,239,176.2z"/>
</g>
<g id="patient">
	<g>
		<g>
			<path class="st5" d="M174.3,223.1c1.9-2,3.6-4.2,6-5.7c0.5-0.3,0.9-0.7,1.3-1.1c0.4-0.4,0.7-1,0.9-1.5c2.3-7.4,3.2-15,4.3-22.6
				l-8.4-1.3c-1.3,6.6-1.3,13-2.8,19.5c-2.6,5.1-4.2,6.8-6.2,10.1C171.8,221.3,172,222,174.3,223.1z"/>
		</g>
		<g>
			<path class="st5" d="M193.1,214.1l-20.7,1.6l-0.3,0c-1.5,0.1-2.9,0.9-3.8,2.3l-11.1,17.4l6.8,5.1l11.9-13.3l18.3-2.4L193.1,214.1
				z"/>
		</g>
		<g>
			<path class="st6" d="M193.1,214.1l-20.7,1.6l-0.3,0c-1.5,0.1-2.9,0.9-3.8,2.3l-8.3,13c1.9,0.5,5,3.1,7.4,5.6l8.5-9.5l18.3-2.4
				L193.1,214.1z"/>
		</g>
		<g>
			<path class="st15" d="M193.1,214.1l-9,0.7c-0.2,0.5-0.6,1-1.2,1.3c-2.2,1.3-4.7,2.1-7,3.4c-0.3,0.2-0.7,0.6-1,1
				c-0.6,0.9-1.1,1.8-1.6,2.7c-2.3,4-5.1,8.2-9.4,10.1c0,0-0.1,0-0.1,0.1c1.2,1,2.5,2.1,3.6,3.3l8.5-9.5l18.3-2.4L193.1,214.1z"/>
		</g>
		<g>
			<path class="st5" d="M198,171.9c1.9-6.7-16-18.3-24.4-8c-0.2,0.3-0.1,0.9-0.2,1.2c-0.2,0.7-0.5,1.3-0.4,2.1
				c0,0.5,0.2,1.1,0.2,1.6c0,0.3-0.1,0.6-0.2,0.9c-0.1,0.3-0.1,0.6-0.3,0.9c-0.4,0.6-0.7,1.3-1,1.9c-0.1,0.3-0.2,0.6-0.1,0.8
				c0,0.2,0.2,0.3,0.3,0.4c0.3,0.2,0.7,0.3,1,0.4c0.3,0.1,0.8,0.2,0.7,0.6c0,0.1-0.1,0.2-0.2,0.4c-0.2,0.4-0.2,0.8,0,1.2
				c0.1,0.1,0.1,0.2,0.2,0.4s0.1,0.3,0,0.4c-0.2,0.5-0.3,1,0,1.5c0.2,0.3,0.4,0.5,0.5,0.7c0.6,0.9,0.6,2.2,1.2,3
				c0.1,0.2,0.3,0.3,0.4,0.4c0.1,0.1,0.3,0.1,0.4,0.1c0.5,0.1,0.9,0,1.4,0c0.3,0,0.6,0.1,0.9,0.1c0.6,0.1,1.2,0.1,1.7,0.1
				c1.3,0,2.5-0.2,3.7-0.5c2.6-0.6,5.2-1.7,7.5-3.2c2.1-1.3,4.1-3,5.5-5.1C197.4,173.5,197.8,172.7,198,171.9z"/>
		</g>
		<g>
			<path class="st1" d="M189.7,182.1c-4.3,1.1-13.5,1.4-10.9,16.4c1.2,6.9,3.7,15.9,3.6,19c-0.1,3.1,3.2,11.9,18.1,11
				c7.3-0.4,12.3-13.6,7.3-26.8C205.4,195.4,204,178.6,189.7,182.1z"/>
		</g>
		<g>
			<path class="st5" d="M202.9,229.1l-1.1-10.7l-20.7,1.6l-0.3,0c-1.5,0.1-2.9,0.9-3.8,2.3l-11.1,17.4l6.8,5.1l11.9-13.3
				L202.9,229.1z"/>
		</g>
		<path class="st6" d="M209.8,214.4c-2.6,0.9-5.4,1.4-8.3,1.5c-3.5,0.1-7.1,0.1-10.7,0c-2.9-0.1-5.9-0.3-8.8-1
			c0.2,1.1,0.3,2,0.2,2.6c0,0.6,0.1,1.4,0.4,2.3l-1.6,0.1l-0.3,0c-1.5,0.1-2.9,0.9-3.8,2.3l-8.8,12.9c3.9,2.1,7.5,5.1,8.1,5.9
			l10.5-9.8c0,0,12,0.2,15.7-1.3c0,0,0,0,0,0c0,0,0,0,0,0c0.1,0,0.1-0.1,0.2-0.1C206.7,228.1,209.5,221.8,209.8,214.4z"/>
		<path class="st15" d="M207.1,215.1c-0.8,2.7,0.9,10-14,12.6c-1.9,0.3-3.7,0.3-5.6,0.4c-1.8,0-7.4,7.7-9.8,10.3
			c-0.7,0.7-1.4,1.4-2.1,2c0.3,0.3,0.6,0.6,0.7,0.7l10.5-9.8c0,0,12,0.2,15.7-1.3c0,0,0,0,0,0c0,0,0,0,0,0c0.1,0,0.1-0.1,0.2-0.1
			c3.9-1.8,6.8-8.1,7.1-15.6C208.9,214.7,208,214.9,207.1,215.1z"/>
		<g>
			<path class="st5" d="M194.9,182.2l-1.4-8.7l-11.9,6.6l1.6,4.9C183.2,184.9,189.5,187.5,194.9,182.2z"/>
		</g>
		<g>
			<path class="st3" d="M183.2,184.9c0,0,0.8,0.3,2.1,0.5c1.2-1.1,2.1-2.2,2.9-3.5c0.2-0.3,0.4-0.6,0.5-0.8
				c-1.5,0.4-2.9,0.8-4.4,1.3c-0.3,0.1-0.6,0.1-0.9,0.1c-0.3,0.1-0.7,0.1-1,0.2L183.2,184.9z"/>
		</g>
		<g>
			<path class="st15" d="M172.5,164.5c0.2,0,0.3,0,0.5-0.1c0.4-0.1,0.7-0.2,1.1-0.3c0.7-0.1,1.4,0.3,2.1,0.1
				c0.4-0.1,0.8-0.3,1.2-0.3c0.7,0,1,0.6,1.3,1c0.3,0.4,0.7,0.6,1,1c0.1,0.1,0.1,0.2,0.2,0.3c0,0.1,0,0.2,0.1,0.3
				c0,0.2,0.1,0.4,0.3,0.5c0.3,0.2,0.5-0.1,0.8,0c0.1,0,0.2,0.1,0.3,0.2c0.6,0.5,1.3,1.1,1.6,1.9c0.3,0.7,0.1,1.4,0.8,1.8
				c1.1,0.7,3.4-0.4,4.6-0.4c2.1,0,3.8,7.6,3.8,7.6c0.6,0.2,4.6,1.7,4.3-0.2c0-0.1-0.1-0.2-0.1-0.3c0-0.1,0.2-0.2,0.3-0.3
				c0.7-0.7,0.5-1.9,1-2.7c0.5-0.8,1.2-1.4,1.7-2.4c1-2.2,1.4-4.7,1.1-7.1c-1-8.1-4.8-10.2-9.3-11.1c-10.9-2.1-14,1.2-16.5,3.6
				c-1.3,1.3-1.7,3.5-2.7,5.1c-0.4,0.6-1,1.4-0.1,1.8C172,164.5,172.2,164.5,172.5,164.5z"/>
		</g>
		<g>
			<path class="st5" d="M186.4,172.1c0,0-0.5-4.5,2.7-3.8c3.2,0.6,2.8,7.2,1.1,7.1C188.5,175.2,186.3,173.9,186.4,172.1z"/>
		</g>
		<g>
			<path class="st5" d="M205.4,209.2c-0.7-6.4-2.3-12.5-4.5-18.5l-8.8,2.8c1.4,4.9,3.1,9.7,4.4,14.6c-3.7,2-7.5,3.9-11.2,5.9
				l2.4,5.9c5.4-1.6,10.8-3.1,15.6-6C204.8,213,205.6,211,205.4,209.2z"/>
		</g>
		<g>
			<path class="st1" d="M192.4,201.2l13.1-1c0,0-2.7-13.2-8.4-11.6C191.2,190.1,191.9,195.8,192.4,201.2z"/>
		</g>
		<g>
			<path class="st1" d="M179.2,187.7c-2.1,2.7-2.9,14.1-2.9,14.1l6.6-0.6C182.9,201.2,183.5,182.3,179.2,187.7z"/>
		</g>
		<g>
			<path class="st16" d="M157.2,235.4c0,0-4-0.2-6.7-0.1c-2.7,0.2-5.9,3.9-2.4,6.2c5.1,3.4,7.9,4.1,11,3.9c3.1-0.3,4.8-4.9,4.8-4.9
				L157.2,235.4z"/>
		</g>
		<g>
			<path class="st0" d="M165.9,239.7c0,0-3.3,1.2-5.3,1c-2-0.2-7.1,3.6-4.4,6.4c2.6,2.7,8.8,4.1,11.4,4.1c2.6,0,4.2-2.8,5-6.4
				L165.9,239.7z"/>
		</g>
		<g>
			<path class="st5" d="M185.6,214.1c0,0-5,0.9-5.8,3.8c-0.2,1,2.4,6.3,5.6,5.4c0,0,3.6-1.6,3.4-4.4
				C188.6,212.7,185.6,214.1,185.6,214.1z"/>
		</g>
		<g>
			<path class="st5" d="M176.8,221.9c-0.2,0-0.3,0-0.5-0.1c-0.4-0.3-0.5-0.8-0.2-1.2c1.5-2.2,4.9-4.4,5.1-4.5
				c0.4-0.2,0.9-0.1,1.1,0.3c0.2,0.4,0.1,0.9-0.3,1.1c0,0-3.3,2.1-4.6,4C177.3,221.7,177,221.9,176.8,221.9z"/>
		</g>
		<g>
			<path class="st5" d="M177.7,224c-0.2,0-0.3-0.1-0.5-0.2c-0.4-0.3-0.5-0.8-0.2-1.2c2.1-2.9,4.8-3.8,5-3.9c0.4-0.1,0.9,0.1,1.1,0.5
				c0.1,0.4-0.1,0.9-0.5,1.1c0,0-2.4,0.8-4.1,3.3C178.2,223.8,178,224,177.7,224z"/>
		</g>
		<g>
			<path class="st5" d="M179.5,225.6c-0.2,0-0.3,0-0.5-0.1c-0.4-0.3-0.5-0.8-0.2-1.2c2.1-3.1,4.9-4,5-4.1c0.4-0.1,0.9,0.1,1,0.5
				c0.1,0.4-0.1,0.9-0.5,1c0,0-2.3,0.8-4.1,3.4C180.1,225.5,179.8,225.6,179.5,225.6z"/>
		</g>
		<g>
			<path class="st5" d="M181.9,226.6c-0.1,0-0.3,0-0.4-0.1c-0.4-0.2-0.5-0.7-0.3-1.1c1.9-3.3,4.1-3.9,4.2-3.9c0.4-0.1,0.9,0.2,1,0.6
				c0.1,0.4-0.1,0.9-0.6,1c-0.1,0-1.7,0.5-3.2,3.1C182.5,226.5,182.2,226.6,181.9,226.6z"/>
		</g>
	</g>
</g>
<g id="DELETE_Faces">
	<path class="st15" d="M173.9,173.3c0.2,0.1,0.5,0.3,0.7,0.2c-0.3,0.1-0.5,0-0.8,0c-0.3,0-0.6-0.1-0.9-0.2
		C173.2,173.2,173.6,173.2,173.9,173.3z"/>
	<path class="st15" d="M175.4,173.8c0.3-0.3,0.3-0.8,0.1-1.1c-0.1,0.2-0.1,0.5-0.3,0.7c-0.1,0.2-0.3,0.4-0.5,0.5
		C174.9,174.1,175.2,174,175.4,173.8z"/>
	<path class="st15" d="M173.9,176.3c0.4,0.2,0.9,0.3,1.3,0.4c0.1,0,0.2,0,0.4,0.1c0.2,0.1,0.3,0.2,0.3,0.3c0,0,0,0,0,0c0,0,0,0,0,0
		c-0.7,0.1-1.5,0.1-2.2,0c0.1,0-0.1-0.4-0.1-0.4c-0.1-0.1-0.2-0.2-0.2-0.3C173.4,176.1,173.7,176.2,173.9,176.3z"/>
	<path class="st15" d="M173.5,177.4c0,0.1,0,0.3,0.1,0.4c0.1,0.1,0.2,0.1,0.3,0.1c0.2,0.1,0.4,0.1,0.6,0c0.2-0.1,0.3-0.2,0.5-0.3
		c0.2-0.1,0.4-0.1,0.6-0.2c0.2-0.1,0.3-0.3,0.4-0.4c0,0-0.3-0.1-0.4-0.1c-0.1,0-0.2,0-0.3,0.1c-0.3,0-0.6,0-1,0
		c-0.1,0-0.4-0.1-0.5,0C173.6,177.1,173.5,177.3,173.5,177.4z"/>
	<g>
		<path class="st15" d="M220.5,131c0.6-0.1,1.1-0.3,1.7-0.5c0.6-0.2,1.2-0.4,1.8-0.2c-0.5-0.4-1.2-0.5-1.8-0.3
			c-0.5,0.1-0.9,0.4-1.3,0.6c-0.6,0.2-1.2,0.1-1.8-0.2C219.3,130.9,220,131.1,220.5,131z"/>
		<path class="st15" d="M221.3,133.7l-1.1,1.2c-0.1,0.4,0.4,0.2,0.4,0.2c0.3-0.2,1-0.3,1-0.3c0.9,0,1.3-0.2,1.3-0.2
			c0.7-0.3,1.8-0.4,1.8-0.4c1.7-0.1,1.7-0.7,1.7-0.7l-4-0.1c0,0-0.2,0.1-0.4,0.3C221.9,133.9,221.4,133.6,221.3,133.7z"/>
		<path class="st15" d="M221.4,135.6c0,0,2.4,0,3.4-0.9c0,0-0.3,0.7-1.5,1.1C222.2,136.2,221.4,135.6,221.4,135.6z"/>
		<path class="st15" d="M229.9,122.4c0,0-4.8,0-6,1.4c0,0,0.9,1.5,1.7,1.2c1.7-0.4,0.9-1.4,1.2-1.9L229.9,122.4z"/>
		<path class="st15" d="M221.2,120.9c0,0,0.4-1.1,1.2-1.5c0.8-0.4,7.6-1.1,7.6-1.1L221.2,120.9z"/>
		<path class="st15" d="M219,124.7c0,0-2.5-0.2-3.3,0.2l0,0.3l0.6-0.1C216.3,125,218.1,128.3,219,124.7z"/>
		<path class="st15" d="M217.4,121.9c-0.3,0.1-1.9,0.4-2.1,0.2c-0.2-0.2,0.2-1.8,0.2-1.8L217.4,121.9z"/>
	</g>
	<path class="st15" d="M219.6,130.7c-0.2-0.1-0.4-0.2-0.5-0.3s-0.3-0.3-0.4-0.4c-0.1-0.4,0.3-0.7,0.4-1c-0.1,0.3-0.1,0.6-0.1,0.9
		c0,0.3,0.2,0.6,0.4,0.7"/>
	<ellipse transform="matrix(0.992 -0.1264 0.1264 0.992 -19.9164 23.581)" class="st15" cx="175.9" cy="168.8" rx="0.6" ry="0.7"/>
	<g>
		<path class="st15" d="M174.3,168c0.3,0.1,0.6,0,0.9-0.1c0.2,0,0.3,0,0.5,0c0.2,0,0.4,0.1,0.5,0.1c0.3,0.1,0.6,0.2,0.9,0.4
			c0.3,0.2,0.6,0.3,0.8,0.6c-0.3-0.1-0.6-0.2-0.9-0.3l-0.9-0.3c-0.3-0.1-0.5-0.1-0.9-0.1C175,168.3,174.5,168.3,174.3,168z"/>
	</g>
	<g>
		<path class="st15" d="M174.6,166.4c0.3-0.1,0.6-0.3,0.9-0.3c0.3-0.1,0.7-0.1,1.1,0c0.7,0.2,1.4,0.8,1.5,1.5
			c-0.7-0.3-1.1-0.5-1.7-0.7c-0.3-0.1-0.5-0.1-0.8-0.2C175.3,166.7,174.9,166.7,174.6,166.4z"/>
	</g>
	<g>
		<path class="st15" d="M140.6,131.4c0.3-0.2,0.7-0.3,1-0.3c0.3-0.1,0.6-0.2,0.8-0.4c0.2-0.2,0.3-0.5,0.4-0.8
			c0.1-0.3,0.1-0.7,0.1-1.1c0.1,0.3,0.2,0.7,0.2,1.1c0,0.4-0.1,0.8-0.4,1.1c-0.3,0.3-0.7,0.5-1.1,0.4
			C141.3,131.4,141,131.3,140.6,131.4z"/>
	</g>
	<path class="st15" d="M140.5,129.8c-0.1-0.3-0.4-0.3-0.7-0.4c-0.2,0-0.3-0.1-0.5-0.1c-0.3-0.1-0.6-0.1-0.9,0c0.4,0,0.8,0.1,1,0.4
		c0.1,0.2,0.2,0.4,0.3,0.6C140.1,131,140.8,130.4,140.5,129.8z"/>
	<path class="st15" d="M137.4,129.3c-0.2-0.3-0.3-0.6-0.2-0.9c0.1-0.3,0.2-0.6,0.5-0.7c-0.2,0.3-0.3,0.7-0.2,1.1
		c0.1,0.3,0.5,0.7,0.4,0.9C137.7,129.7,137.5,129.5,137.4,129.3z"/>
	<g>
		<path class="st15" d="M139,122.7c-0.2-0.5-0.3-0.9-0.7-1.1c-0.3-0.2-0.8-0.3-1.2-0.3c-0.5,0-0.9,0-1.4,0c-0.5,0-0.9,0-1.4-0.1
			c0.5-0.2,0.9-0.3,1.4-0.4c0.5-0.1,1-0.1,1.5-0.1c0.5,0,1,0.1,1.5,0.5C139,121.7,139.1,122.2,139,122.7z"/>
	</g>
	<g>
		<path class="st15" d="M143.9,124.9c0.3-0.2,0.7-0.3,1-0.3c0.3,0,0.7,0,1.1,0.1c0.4,0.1,0.7,0.5,0.9,0.8c0.1,0.4,0.1,0.8,0,1.1
			c-0.1-0.3-0.2-0.7-0.4-0.9c-0.2-0.2-0.4-0.4-0.6-0.5c-0.3-0.1-0.6-0.1-0.9-0.2C144.6,125.1,144.3,125,143.9,124.9z"/>
	</g>
	<g>
		<path class="st15" d="M133.1,118.7c0.8-0.5,1.7-0.8,2.7-0.9c0.9-0.2,1.9-0.2,2.9-0.1c1,0.1,2,0.3,2.8,0.9c0.8,0.6,1.5,1.3,1.9,2.3
			l-0.1,0.1c-0.5-0.1-0.9-0.3-1.4-0.4c-0.4-0.1-0.8-0.3-1.2-0.4c-0.8-0.3-1.5-0.8-2.3-1c-0.8-0.3-1.7-0.4-2.5-0.4
			c-0.9-0.1-1.8,0-2.6,0.2L133.1,118.7z"/>
	</g>
	<g>
		<path class="st15" d="M145.2,122.4c0.2-0.5,0.6-0.7,0.9-0.8c0.3-0.1,0.7,0.1,1,0.2c0.2,0.1,0.4,0.1,0.7,0.3
			c0.2,0.2,0.3,0.4,0.3,0.5c0.1,0.3,0.2,0.7,0.2,1l-0.2,0.1c-0.3-0.2-0.5-0.4-0.7-0.5c-0.1-0.1-0.2-0.1-0.3-0.1c0,0-0.1,0.1-0.2,0.1
			c-0.3,0-0.5,0.3-0.8,0.1c-0.3-0.1-0.5-0.3-0.9-0.7L145.2,122.4z"/>
	</g>
	<path class="st5" d="M133.2,132.7c0.9,0,1.7,0,2.6,0.1c0.7,0,1.4,0.1,1.9,0.5c0.3,0.2,0.5,0.5,0.8,0.6c0.2,0,0.3,0,0.5,0.1
		c0.4,0.1,0.7,0.4,0.8,0.7s0.1,0.8,0,1.1c0,0.1-0.1,0.2-0.1,0.2c-0.1,0-0.2,0-0.2,0c-2.3-0.5-4.4-1.6-6.4-2.6
		c-0.4-0.2-0.9-0.4-1.1-0.8C132.4,132.6,132.8,132.7,133.2,132.7z"/>
	<ellipse class="st15" cx="137.5" cy="122.1" rx="1.2" ry="1.1"/>
	<ellipse class="st15" cx="145.4" cy="126" rx="1" ry="0.9"/>
	<path class="st5" d="M138.5,136.6c0,0-0.8,0.3-2.4-0.3c-1.6-0.6-2.3-1.7-2.3-1.7"/>
</g>
<g id="doctors_hand">
	<g>
		<polygon class="st5" points="176.6,196 179.7,195.7 180,197.1 176.5,197.6 		"/>
		<g>
			<g>
				<g>
					<path class="st15" d="M182.5,191.1c0.4-0.1,1,0.1,1.4,0.2c0.3,0.1,0.5,0.3,0.8,0.5c0.5,0.6,0.8,1.5,0.8,2.5
						c0,1.1-0.2,2.2-0.7,3.1c-0.1,0.3-0.3,0.5-0.4,0.7c-0.4,0.6-0.9,1-1.4,1.2c-0.3,0.1-0.5,0.1-0.8,0.1c-0.4,0-1-0.1-1.3-0.4
						c-0.6-0.5-0.6-1.5-0.6-2.7C180.2,194.1,181.1,191.6,182.5,191.1z"/>
					
						<ellipse transform="matrix(0.2145 -0.9767 0.9767 0.2145 -47.4643 331.2852)" class="st2" cx="182.2" cy="195.2" rx="3.8" ry="2.3"/>
					<path class="st15" d="M179.6,196.1c0,2.2,1.2,3.5,2.7,3c0.5-0.2,1-0.6,1.4-1.2c0.2-0.2,0.3-0.5,0.4-0.7c0.5-0.9,0.7-2,0.7-3.1
						c0-1.1-0.3-1.9-0.8-2.5c-0.5-0.6-1.2-0.7-1.9-0.5C180.7,191.7,179.6,194,179.6,196.1z M180.1,196c0-1.2,0.4-2.3,0.9-3.1
						c0.3-0.4,0.7-0.8,1.1-0.9c0.6-0.2,1.1-0.1,1.5,0.4c0.4,0.5,0.6,1.2,0.7,2.1c0,0.9-0.2,1.8-0.6,2.6c-0.4,0.8-0.9,1.3-1.5,1.5
						C181.1,198.9,180.2,197.8,180.1,196z"/>
				</g>
			</g>
			<g>
				<g>
					<path class="st15" d="M182.1,192.9c0.8-0.3,1.5,0.5,1.5,1.7c0,1.3-0.6,2.6-1.5,2.9c-0.8,0.3-1.5-0.5-1.5-1.7
						C180.7,194.5,181.3,193.2,182.1,192.9z"/>
					<path class="st15" d="M181.8,192.7c0.8-0.3,1.5,0.5,1.6,1.7c0,0.6-0.1,1.3-0.4,1.8c-0.1,0.2-0.2,0.3-0.3,0.4
						c-0.2,0.3-0.5,0.6-0.8,0.7c-0.4,0.2-0.8,0.1-1.1-0.3c-0.3-0.3-0.5-0.9-0.5-1.5C180.2,194.3,180.9,193,181.8,192.7z"/>
					<path class="st2" d="M181.5,192.8c0.8-0.3,1.4,0.4,1.4,1.6c0,1.2-0.6,2.3-1.3,2.6c-0.8,0.3-1.4-0.4-1.4-1.6
						C180.1,194.3,180.7,193.1,181.5,192.8z"/>
					<path class="st15" d="M180,195.5c0,0.6,0.2,1.1,0.5,1.5c0.3,0.3,0.7,0.4,1.1,0.3c0.3-0.1,0.6-0.4,0.8-0.7
						c0.1-0.1,0.2-0.3,0.3-0.4c0.3-0.5,0.4-1.2,0.4-1.8c0-1.3-0.7-2.1-1.6-1.7C180.6,192.9,180,194.2,180,195.5z M180.3,195.4
						c0-0.7,0.2-1.3,0.5-1.8c0.2-0.3,0.4-0.4,0.6-0.5c0.7-0.2,1.2,0.4,1.2,1.4c0,0.5-0.1,1-0.3,1.4c-0.2,0.4-0.5,0.7-0.8,0.9l0,0
						c-0.3,0.1-0.6,0-0.8-0.2C180.5,196.3,180.3,195.9,180.3,195.4z"/>
				</g>
			</g>
		</g>
		<path class="st8" d="M156.4,193.3c0,0,12.6-2.5,13.9-2.8c2.5-0.7,11.8,2.9,11.8,2.9s2.1,2.6-1.6,2.5c-2.2-0.1-4.4-0.5-4.1-0.4
			l-0.8,3.6l-1.1,2.2c0,0-2.9,3.6-6.7,4.9c0,0-0.8,0.3-1.4-0.3c-0.6-0.6-0.6-1.2-0.6-1.2s-6.3,1.2-7.5-2.2
			C157.9,200.9,156.4,193.3,156.4,193.3z"/>
		<path class="st8" d="M172.3,201.7c-2.2,0.3-4.4,0.1-6.5-0.8c-3.5-1.5-6.3-4.3-6-8.2c-4.9-0.8-12.9-1.2-12.9-1.2s1.3,8.9,1.8,11.4
			c0.4,1.7,9.6-1.2,9.8-0.6c1.1,3.4,7.5,2.2,7.5,2.2s0,0.6,0.6,1.2c0.6,0.6,1.4,0.3,1.4,0.3c3.8-1.2,6.3-3.6,6.9-4.6
			s0.8-2.6,0.8-2.6C174.4,199.2,173.5,201.6,172.3,201.7z"/>
	</g>
	<path class="st0" d="M121,181.1c-4.7-7.7-5.1-13.7-7.6-20.9c-6.1,3-12.6,5.6-18.6,8.8c5.7,20.6,8.2,29,12.1,32.9
		c7.7,8,37.8,3.1,48.8,2.8l1.6-14.7C148.1,188.9,125.8,184,121,181.1z"/>
	<path class="st16" d="M126.2,203.3c-4.8-0.1-9.7-1.2-14-3.4c-9.8-4.9-20.5-25.9-23.7-31.8c2.5,13.1,15.2,30.5,18.4,33.7
		c7.7,8,37.8,3.1,48.8,2.8l0.2-1.6C154.1,203.2,140,203.5,126.2,203.3z"/>
</g>
</svg>
